<svg xmlns="http://www.w3.org/2000/svg" viewBox="0 0 570.63 281.75"><defs><style>.cls-1{fill:#28047a;}</style></defs><g id="Layer_2" data-name="Layer 2"><g id="Layer_1-2" data-name="Layer 1"><path class="cls-1" d="M231.75,101.6a1.68,1.68,0,0,1-1.68,1.68H199.28a2,2,0,0,0-2,2c.06,12.22.35,77.91.54,95.28a1.7,1.7,0,0,1-1.44,1.68L188,203.47l-21.39,2.85a1.68,1.68,0,0,1-1.9-1.67c.05-11.24.34-69.93.89-97a2,2,0,0,0-2-2H134.08a2,2,0,0,1-2-2c0-9.61-.13-18.9.21-28.19,0-1.11,3-3,4.7-3.05,20.16-.64,40.34-1,60.5-1.45q14.7-.34,29.38-.89c2.86-.11,4.92.27,4.89,3.84C231.71,82.93,231.75,92,231.75,101.6Z"/><path class="cls-1" d="M352.52,115.65l.32-2.07a2,2,0,0,1,2.14-1.64l26,2.46a1.68,1.68,0,0,1,1.53,1.71c-.61,27.13-1.21,54-1.84,81.91a1.67,1.67,0,0,1-1.87,1.63c-8-.93-15.69-1.67-23.28-3.07-1.05-.2-1.7-2.57-2.59-4.94a1.69,1.69,0,0,0-2.36-.89c-22.55,11.66-42.06,8.25-55.71-16a43.33,43.33,0,0,1,6-50.32c13.62-14.73,27.37-16.93,49.36-7.49A1.68,1.68,0,0,0,352.52,115.65Zm-.79,36.15c.24-10.29-6.54-18.14-15.8-18.27-9.87-.15-17.32,7.23-17.56,17.37-.2,8.59,7.59,17.15,15.81,17.4C344.09,168.59,351.5,161.63,351.73,151.8Z"/><path class="cls-1" d="M519.21,159.07a1.67,1.67,0,0,0-1.12,2.37c4.92,9.39,17.69,10.64,24.9,4.69,4.41-3.64,7.53-2.66,11.37.39s7.76,5.66,11.65,8.4a1.68,1.68,0,0,1,.46,2.26c-9.77,16.38-32.13,23-51,15-26.84-11.26-36-48.08-17.58-70.36,17.9-21.6,52-18.16,66.4,6.8a118,118,0,0,1,5.54,12c2,4.65.17,7-4.61,8-10.68,2.22-21.3,4.69-31.93,7.11C528.67,156.74,524.08,157.89,519.21,159.07Zm0-18.73,20.7-5.2a1.69,1.69,0,0,0,1-2.57c-3.92-5.93-8.94-7.58-15.58-5.4-5.84,1.91-8.61,5.65-8.2,11.68A1.68,1.68,0,0,0,519.23,140.34Z"/><path class="cls-1" d="M228.78,109.89c19.11-3.36,27.64-3.58,30.58-.79a1.64,1.64,0,0,0,1.76.26c14.61-6.17,24.82-4.92,36.05,4.64a1.67,1.67,0,0,1,.26,2.24c-4.12,5.76-8.19,11.63-12.58,17.24-.81,1-3.27,1.41-4.81,1.15A17.91,17.91,0,0,0,259,152c-.09,13.14,0,26.28,0,40a1.68,1.68,0,0,1-1.47,1.67L231.15,197a1.68,1.68,0,0,1-1.89-1.63c-.63-28-1.25-55.72-1.87-83.73A1.69,1.69,0,0,1,228.78,109.89Z"/><path class="cls-1" d="M41.14,176.68,44,178.31c1,.67,1.68.59,2.89-.56,7.2-6.81,14.77-7.59,20.12-2.07a13.31,13.31,0,0,1,3.88,7.24c.42,2.58,10.45,1.1,11.25-1a51.25,51.25,0,0,1,3.08-7c5.71-10.09,16.09-13,21.63-8.13l1.35.79a2.49,2.49,0,0,0,3.26-.69c.46-.63.91-1.26,1.14-1.63,3.71-5.95,5.43-11.84,6.87-16.42,7.81-24.86,4.09-47.47,1.14-62.18-1.1-5.49-1.57-5.08-3.11-11.53a1.42,1.42,0,0,0-1.79-1c-7.94,2.48-15.31,4.86-22.73,7a3.26,3.26,0,0,0-2.06,1.34c-.83,1.42-.16,3.31,0,3.78,1,3,2.13,11.26,4.89,32,0,0,0,.07,0,.11l.56,10.27v.18c-.12,1.61-2.18,25.54-22.35,27.38h-.14l-7.29.05a1.47,1.47,0,0,1-.36,0c-1.24-.34-8.41-2.47-12.95-7.69-7.2-8.27-9-18.69-8.24-28.74,1-12.48,4.11-26.55,6-38.93.38-2.46.86-4.25-2.13-5.08C43.72,74.32,8,72.87,4.58,81.59v-.06c-.67,1.61-6.8,11-3.74,14.87A1.42,1.42,0,0,0,2,96.89l14.46-1c3.7-.23,6.93-.88,7.55.79a3.15,3.15,0,0,1,0,1.8c-1.64,4.28-13.06,45.33,9.79,72.48,1.5,1.78,7.35,5.68,7.35,5.68l-.23-.13Z"/><path class="cls-1" d="M479.73,72l-5.62.81-21.17,3.08a1.66,1.66,0,0,0-1.44,1.63c-.09,8.12-.13,17-.12,24.19v7.49a2,2,0,0,1-2.95,1.74,41.76,41.76,0,0,0-8.17-3.9c-19.33-5.56-41.82,6.2-48.43,25.21a55.84,55.84,0,0,0,.19,37.32c5.2,15.11,16.07,22.72,32,23.77,9,.6,16.85-2.1,24.56-7a2,2,0,0,1,3.07,1.51c.1,1.28.19,2.44.29,3.63a2,2,0,0,0,1.82,1.82l25.76,2.11a2,2,0,0,0,2.16-2V73.66A1.67,1.67,0,0,0,479.73,72Zm-47,94.78c-10.14-.21-17-8.11-16.79-19.35.16-8.79,7.46-15.43,16.86-15.35,10.11.1,16.69,6.71,16.57,16.64C449.2,159.63,442.42,167,432.7,166.78Z"/><path class="cls-1" d="M169.5,222.92a1.69,1.69,0,0,1,1.1-2.66l7.46-1.09,18.82-2.75,2.11-.31a1.61,1.61,0,0,1,1.09.22c5.89,3.45,17.39,5.91,22.16,5.74,16-.54,34.06-.75,51.5-1.1a2,2,0,0,0,1.49-3.22c-1.14-1.45-2-2.55-2.83-3.67-4.82-6.53-4.91-14.44-.27-20.89,3.88-5.38,11.45-7.16,16.32-2,10.95,11.48,21.48,23.58,31.63,36.06,4.06,5,3.11,13.54-1.43,19q-13.57,16.32-27.78,31.89c-4.62,5.09-12.78,4.68-17.17-.11-4.82-5.25-5.54-13.51-1.71-20.23.58-1,1.22-2,2-3.23a1.69,1.69,0,0,0-1.23-2.61,25.23,25.23,0,0,0-2.94-.17c-15.2.28-30.4.48-45.59,1a57.58,57.58,0,0,1-28.95-6.58C184.21,240.55,174.35,229.62,169.5,222.92Z"/><path class="cls-1" d="M479.79,58.83a1.68,1.68,0,0,1-1.1,2.66l-7.45,1.09-18.82,2.75-2.12.32a1.7,1.7,0,0,1-1.08-.22c-5.9-3.45-17.4-5.91-22.17-5.75-16,.54-34.05.75-51.5,1.1A2,2,0,0,0,374.06,64c1.14,1.45,2,2.55,2.83,3.67,4.82,6.53,4.91,14.44.28,20.89-3.88,5.38-11.45,7.16-16.32,2-11-11.48-21.49-23.58-31.64-36.06-4.06-5-3.11-13.54,1.44-19q13.58-16.32,27.77-31.89a11.8,11.8,0,0,1,17.17.11C380.41,9,381.14,17.27,377.31,24c-.59,1-1.22,2-2,3.24a1.68,1.68,0,0,0,1.22,2.6,21.58,21.58,0,0,0,2.94.17c15.2-.28,30.41-.48,45.6-1A57.55,57.55,0,0,1,454,35.61C465.08,41.2,474.94,52.13,479.79,58.83Z"/><path class="cls-1" d="M136.47,172.71l-6.69,1.6c.35,6.28.71,12.53,1.07,19l-10.23,2.21-.21-19.13-4,.44c-.44-3.26-.87-6.47-1.34-10a30.33,30.33,0,0,1,3.3-.34c1.42,0,1.74-.76,1.67-2.23a34.8,34.8,0,0,1,.1-5.1c.52-5.32,2.44-7.87,7.08-9.11,4.08-1.09,8-1,11.68,1.69L135.22,159c-4.39-.68-5.91.93-5.45,5.72l6.07-.67Z"/><path class="cls-1" d="M99.93,169.51c7-1.11,12.56,4.44,12.73,13.24.16,8.31-5.12,15.4-13,16.67-6.9,1.11-13.15-5-13.54-13.11A16,16,0,0,1,99.93,169.51Zm4.3,14.6c-.09-3.63-2-5.79-4.91-5.43-3.26.41-5,2.9-4.84,7a4.5,4.5,0,0,0,5,4.49C102.35,189.81,104.32,187.32,104.23,184.11Z"/><path class="cls-1" d="M56.11,176.78c7-1.11,12.57,4.44,12.74,13.24.16,8.31-5.12,15.4-13,16.67-6.9,1.12-13.15-5-13.54-13.11A16,16,0,0,1,56.11,176.78Z"/></g></g></svg>